<?xml version="1.0" standalone="no"?>
<!DOCTYPE svg PUBLIC "-//W3C//DTD SVG 1.1//EN" "http://www.w3.org/Graphics/SVG/1.1/DTD/svg11.dtd" >
<svg xmlns="http://www.w3.org/2000/svg" xmlns:xlink="http://www.w3.org/1999/xlink" version="1.1">
<metadata>
Created by FontForge 20170731 at Tue Oct  7 15:28:09 2014
 By Aleksey,,,
Copyright (c) 2014 by Daniel Hernandez &#38; Miguel Hernandez. All rights reserved.
</metadata>
<defs>
<font id="Texta-Medium" horiz-adv-x="596" >
  <font-face 
    font-family="Texta-Medium"
    font-weight="400"
    font-stretch="normal"
    units-per-em="1000"
    panose-1="2 0 0 0 0 0 0 0 0 0"
    ascent="764"
    descent="-236"
    x-height="420"
    cap-height="600"
    bbox="-24 -192 985 813"
    underline-thickness="50"
    underline-position="-150"
    unicode-range="U+000D-25CA"
  />
<missing-glyph horiz-adv-x="564" 
 />
    <glyph glyph-name=".notdef" horiz-adv-x="564" 
 />
    <glyph glyph-name=".null" horiz-adv-x="0" 
 />
    <glyph glyph-name="nonmarkingreturn" horiz-adv-x="333" 
 />
    <glyph glyph-name="NUL" horiz-adv-x="0" 
 />
    <glyph glyph-name="NUL" horiz-adv-x="0" 
 />
    <glyph glyph-name="CR" unicode="&#xd;" horiz-adv-x="105" 
 />
    <glyph glyph-name="space" unicode=" " horiz-adv-x="220" 
 />
    <glyph glyph-name="exclam" unicode="!" horiz-adv-x="213" 
d="M156 600l-21 -425h-57l-21 425h99zM53 48q0 23 16 39t38 16q23 0 39 -16.5t16 -38.5q0 -23 -16 -39.5t-39 -16.5q-22 0 -38 16.5t-16 39.5z" />
    <glyph glyph-name="quotedbl" unicode="&#x22;" horiz-adv-x="321" 
d="M145 684l-45 -209h-50l18 209h77zM289 684l-45 -209h-50l18 209h77z" />
    <glyph glyph-name="numbersign" unicode="#" horiz-adv-x="622" 
d="M507 583l-35 -159h119l-12 -51h-118l-35 -164h114l-10 -52h-115l-34 -157h-54l33 157h-156l-34 -157h-55l34 157h-118l12 52h117l36 164h-114l10 51h115l35 159h54l-35 -159h157l34 159h55zM250 373l-35 -164h156l36 164h-157z" />
    <glyph glyph-name="dollar" unicode="$" horiz-adv-x="511" 
d="M38 59l45 62q6 -5 17.5 -13.5t49.5 -24t78 -19.5v209q-100 31 -143.5 70t-43.5 105q0 70 49.5 113.5t137.5 50.5v104h59v-104q54 -4 97 -18.5t59 -27.5l16 -13l-45 -68q-45 41 -127 49v-189q104 -32 147 -74.5t43 -109.5q0 -72 -49 -119.5t-141 -54.5v-94h-59v94
q-58 4 -105.5 22t-66.5 34zM388 158q0 33 -21.5 54t-79.5 42v-189q101 12 101 93zM129 449q0 -29 22 -48t77 -38v171q-46 -5 -72.5 -27.5t-26.5 -57.5z" />
    <glyph glyph-name="percent" unicode="%" horiz-adv-x="656" 
d="M171 613q60 0 95 -43.5t35 -106.5q0 -62 -35 -106.5t-95 -44.5t-96 44.5t-36 106.5q0 63 35.5 106.5t96.5 43.5zM171 553q-31 0 -47.5 -24.5t-16.5 -65.5q0 -40 16.5 -65t47.5 -25q29 0 45.5 25t16.5 65q0 41 -16.5 65.5t-45.5 24.5zM487 293q60 0 95.5 -44t35.5 -107
q0 -62 -35.5 -106t-95.5 -44t-95.5 44t-35.5 106q0 63 35.5 107t95.5 44zM487 233q-30 0 -47 -25t-17 -66q0 -39 17 -64t47 -25t46 24.5t16 64.5q0 42 -16 66.5t-46 24.5zM521 600h84l-477 -600h-83z" />
    <glyph glyph-name="ampersand" unicode="&#x26;" horiz-adv-x="598" 
d="M467 287l77 -19q-17 -87 -59 -154l114 -114h-117l-51 52q-72 -62 -170 -62q-101 0 -158 47t-57 118q0 58 32.5 96t90.5 69l-14 15q-57 58 -57 130q0 62 45.5 105t118.5 43q74 0 119 -40t45 -102q0 -60 -34 -98t-96 -71l133 -133q26 47 38 118zM259 61q68 0 120 44
l-155 159q-42 -23 -64.5 -47.5t-22.5 -59.5q0 -43 35 -69.5t87 -26.5zM181 463q0 -27 11.5 -47.5t38.5 -47.5l11 -12q50 25 76 49t26 58q0 37 -22 59t-60 22q-36 0 -58.5 -22t-22.5 -59z" />
    <glyph glyph-name="quotesingle" unicode="'" horiz-adv-x="177" 
d="M145 684l-45 -209h-50l18 209h77z" />
    <glyph glyph-name="parenleft" unicode="(" horiz-adv-x="266" 
d="M123 287q0 -226 126 -371l-51 -53q-160 170 -160 424t160 424l51 -52q-126 -147 -126 -372z" />
    <glyph glyph-name="parenright" unicode=")" horiz-adv-x="266" 
d="M143 287q0 225 -126 372l51 52q160 -170 160 -424t-160 -424l-51 53q126 145 126 371z" />
    <glyph glyph-name="asterisk" unicode="*" horiz-adv-x="387" 
d="M79 444l92 95l-128 21l22 66l114 -65l-18 132h66l-23 -133l117 66l23 -66l-131 -21l94 -95l-56 -39l-59 118l-58 -118z" />
    <glyph glyph-name="plus" unicode="+" horiz-adv-x="511" 
d="M290 515v-187h183v-68h-183v-179h-69v179h-182v68h182v187h69z" />
    <glyph glyph-name="comma" unicode="," horiz-adv-x="207" 
d="M155 42v-8q0 -61 -33 -103.5t-92 -53.5l-13 46q32 8 52 25.5t23 42.5q-18 4 -30 18t-12 33q0 22 15 37t37 15t37.5 -15t15.5 -37z" />
    <glyph glyph-name="hyphen" unicode="-" horiz-adv-x="394" 
d="M57 195v68h280v-68h-280z" />
    <glyph glyph-name="period" unicode="." horiz-adv-x="205" 
d="M102 -10q-22 0 -37 15t-15 37t15 37t37 15t37.5 -15t15.5 -37t-15.5 -37t-37.5 -15z" />
    <glyph glyph-name="slash" unicode="/" horiz-adv-x="577" 
d="M108 -111l-87 -1l450 895h85z" />
    <glyph glyph-name="zero" unicode="0" horiz-adv-x="603" 
d="M302 -14q-120 0 -188.5 89.5t-68.5 223.5q0 135 68.5 224.5t188.5 89.5t188 -89.5t68 -224.5q0 -134 -68.5 -223.5t-187.5 -89.5zM302 65q81 0 126.5 66t45.5 168t-45.5 169t-126.5 67q-82 0 -127.5 -66.5t-45.5 -169.5q0 -102 45.5 -168t127.5 -66z" />
    <glyph glyph-name="one" unicode="1" horiz-adv-x="302" 
d="M15 525v75h217v-600h-83v525h-134z" />
    <glyph glyph-name="two" unicode="2" horiz-adv-x="497" 
d="M45 0v57l247 252q34 35 46.5 59.5t12.5 54.5q0 48 -33.5 79.5t-88.5 31.5q-15 0 -29.5 -2.5t-26.5 -7t-24 -10.5t-20.5 -11.5t-18 -12.5t-14 -11t-10.5 -9l-5 -6l-44 66q3 3 8.5 9t24.5 20t40 25t54.5 20t68.5 9q99 0 153.5 -51.5t54.5 -132.5q0 -84 -65 -150l-201 -204
h279v-75h-409z" />
    <glyph glyph-name="three" unicode="3" horiz-adv-x="502" 
d="M234 281h-79v63l175 181h-279v75h394v-68l-166 -180q168 -13 168 -175q0 -82 -56.5 -136t-159.5 -54q-38 0 -72.5 8.5t-56 21t-37 24.5t-22.5 21l-7 8l47 60q2 -3 6 -7.5t18.5 -15.5t30 -20t40.5 -16t51 -7q67 0 100 33.5t33 85.5q0 98 -128 98z" />
    <glyph glyph-name="four" unicode="4" horiz-adv-x="555" 
d="M23 139v61l333 400h67v-386h103v-75h-103v-139h-83v139h-317zM131 217v-3h209v255l-194 -237z" />
    <glyph glyph-name="five" unicode="5" horiz-adv-x="486" 
d="M417 525h-264l-5 -165q35 8 78 8q110 0 165.5 -50t55.5 -135q0 -88 -56.5 -142t-159.5 -54q-38 0 -72 8.5t-55.5 21t-37.5 24.5t-23 21l-7 8l47 60q6 -7 17 -18t49 -29.5t80 -18.5q61 0 97 31.5t36 87.5q0 51 -38 81t-107 30q-37 0 -70.5 -6.5t-47 -11.5t-15.5 -7l-15 11
l9 320h339v-75z" />
    <glyph glyph-name="six" unicode="6" horiz-adv-x="527" 
d="M134 310v-4q54 69 151 69q89 0 146 -53.5t57 -132.5q0 -84 -59.5 -141.5t-150.5 -57.5q-103 0 -167 73t-64 231q0 153 66.5 235.5t176.5 82.5q36 0 67 -8.5t50.5 -20.5t33.5 -24t19 -21l6 -8l-48 -62l-8 9q-7 9 -17 17.5t-24.5 18t-35 15.5t-43.5 6q-73 0 -114.5 -54
t-41.5 -170zM280 301q-55 0 -92.5 -31t-45.5 -82q27 -122 135 -122q55 0 90.5 35.5t35.5 86.5q0 50 -34 81.5t-89 31.5z" />
    <glyph glyph-name="seven" unicode="7" horiz-adv-x="443" 
d="M28 525v75h401v-57l-261 -543h-99l258 525h-299z" />
    <glyph glyph-name="eight" unicode="8" horiz-adv-x="521" 
d="M261 -14q-99 0 -157 53t-58 130q0 99 87 145q-72 46 -72 130q0 74 53.5 121.5t146.5 47.5t146 -47.5t53 -121.5q0 -84 -72 -130q87 -46 87 -145q0 -77 -57.5 -130t-156.5 -53zM390 170q0 47 -35.5 77.5t-93.5 30.5t-94 -30.5t-36 -77.5t36 -77.5t94 -30.5t93.5 30.5
t35.5 77.5zM261 346q54 0 84.5 27t30.5 69q0 40 -30.5 67.5t-84.5 27.5q-55 0 -85 -27.5t-30 -67.5q0 -42 30 -69t85 -27z" />
    <glyph glyph-name="nine" unicode="9" horiz-adv-x="525" 
d="M243 64q72 0 112 55.5t36 172.5v3q-53 -69 -151 -69q-90 0 -146.5 53.5t-56.5 133.5q0 84 59.5 141.5t150.5 57.5q103 0 167 -73.5t64 -231.5q0 -154 -63 -237.5t-172 -83.5q-36 0 -67 8.5t-50 20.5t-33 24t-20 21l-6 8l48 62l7 -9q8 -9 18 -17.5t24.5 -18t35 -15.5
t43.5 -6zM244 300q54 0 91.5 30t46.5 81q-28 124 -134 124q-55 0 -90.5 -35.5t-35.5 -86.5q0 -49 33.5 -81t88.5 -32z" />
    <glyph glyph-name="colon" unicode=":" horiz-adv-x="218" 
d="M95 3q-16 6 -23.5 21t-1.5 31q5 16 20.5 23.5t31.5 2.5q17 -6 24.5 -21.5t1.5 -31.5t-21.5 -23t-31.5 -2zM95 336q-16 6 -23.5 21t-1.5 31q5 16 20.5 23.5t31.5 1.5q17 -5 24.5 -20.5t1.5 -31.5q-6 -17 -21.5 -24t-31.5 -1z" />
    <glyph glyph-name="semicolon" unicode=";" horiz-adv-x="236" 
d="M35 -77q70 16 75 68q-19 4 -30.5 18t-11.5 33q0 22 15.5 37t37.5 15t37 -15t15 -37v-8q0 -61 -33 -103.5t-92 -53.5zM121 323q-23 0 -38 14.5t-15 36.5t15.5 37.5t37.5 15.5t37 -15.5t15 -37.5t-15 -36.5t-37 -14.5z" />
    <glyph glyph-name="less" unicode="&#x3c;" horiz-adv-x="373" 
d="M36 277v44l272 190v-86l-187 -126l187 -126v-86z" />
    <glyph glyph-name="equal" unicode="=" horiz-adv-x="464" 
d="M60 354v68h344v-68h-344zM60 163v68h344v-68h-344z" />
    <glyph glyph-name="greater" unicode="&#x3e;" horiz-adv-x="373" 
d="M337 321v-44l-272 -190v86l188 126l-188 126v86z" />
    <glyph glyph-name="question" unicode="?" horiz-adv-x="423" 
d="M65 491l-37 68q7 6 19.5 15t55 24t88.5 15q90 0 143.5 -42.5t53.5 -115.5q0 -40 -16 -72.5t-39 -53.5t-46.5 -40t-41 -41.5t-19.5 -48.5l-2 -25h-61v37q0 30 14 57t34 46.5t40.5 38.5t34.5 42.5t14 48.5q0 41 -30.5 65.5t-81.5 24.5q-33 0 -63.5 -11t-44.5 -21zM142 47
q0 23 16 38.5t38 15.5t38 -15.5t16 -38.5t-15.5 -39t-38.5 -16t-38.5 16t-15.5 39z" />
    <glyph glyph-name="at" unicode="@" horiz-adv-x="1005" 
d="M753 51q-61 0 -94.5 29t-42.5 68h-6q-7 -11 -17.5 -23t-31 -29t-51.5 -28t-67 -11q-79 0 -128 51t-49 136q0 112 67 182.5t161 70.5q63 0 97 -26.5t46 -59.5l18 76h63l-29 -249q-3 -24 -3 -41q0 -38 21 -61t58 -23q56 0 93.5 54.5t37.5 147.5q0 67 -25.5 132.5t-72 119.5
t-121.5 87.5t-165 33.5q-179 0 -297 -121t-118 -289q0 -171 120.5 -292t290.5 -121q56 0 109 14t77 29l25 14l24 -51q-9 -7 -27.5 -17.5t-79.5 -27.5t-128 -17q-135 0 -244 65.5t-167.5 172t-58.5 229.5q0 127 58.5 233.5t168 171t247.5 64.5q192 0 321.5 -125t129.5 -303
q0 -115 -59 -190.5t-151 -75.5zM464 129q64 0 108 51.5t44 123.5q0 57 -32 89t-83 32q-60 0 -104 -48t-44 -122q0 -59 30.5 -92.5t80.5 -33.5z" />
    <glyph glyph-name="A" unicode="A" 
d="M337 600l253 -600h-87l-53 129h-305l-53 -129h-86l252 600h79zM298 499l-123 -297h245z" />
    <glyph glyph-name="B" unicode="B" horiz-adv-x="603" 
d="M560 168q0 -83 -57 -125.5t-156 -42.5h-268v600h257q98 0 152 -41.5t54 -120.5q0 -47 -24 -81t-65 -49v-3q49 -13 78 -48.5t29 -88.5zM347 267h-186v-192h187q56 0 91 25t35 73q0 44 -36 69t-91 25zM456 432q0 93 -121 93h-174v-185h173q56 0 89 25t33 67z" />
    <glyph glyph-name="C" unicode="C" horiz-adv-x="563" 
d="M492 126l48 -64l-8 -8q-5 -5 -23.5 -18.5t-39.5 -23.5t-56 -18t-73 -8q-133 0 -217 90t-84 223q0 134 83.5 224t217.5 90q60 0 110 -19t70 -38l20 -19l-48 -64q-2 3 -6.5 7t-19.5 14.5t-31 19t-41.5 15t-52.5 6.5q-95 0 -156 -68t-61 -168q0 -99 61 -167t156 -68
q42 0 80 15.5t55 30.5z" />
    <glyph glyph-name="D" unicode="D" horiz-adv-x="631" 
d="M591 300q0 -136 -84.5 -218t-222.5 -82h-205v600h205q138 0 222.5 -82t84.5 -218zM279 525h-118v-450h118q99 0 163 60.5t64 164.5t-64 164.5t-163 60.5z" />
    <glyph glyph-name="E" unicode="E" horiz-adv-x="542" 
d="M452 340v-73h-291v-192h341v-75h-423v600h423v-75h-341v-185h291z" />
    <glyph glyph-name="F" unicode="F" horiz-adv-x="532" 
d="M452 340v-73h-291v-267h-82v600h424v-75h-342v-185h291z" />
    <glyph glyph-name="G" unicode="G" horiz-adv-x="639" 
d="M522 256v4h-199v73h285v-50q0 -136 -72.5 -216.5t-198.5 -80.5q-135 0 -216 89.5t-81 223.5q0 135 82.5 224.5t217.5 89.5q41 0 78.5 -8t61 -19.5t41 -23t25.5 -19.5l7 -8l-49 -63q-7 7 -19.5 17.5t-55 28t-89.5 17.5q-97 0 -156 -67.5t-59 -168.5q0 -100 58 -167.5
t154 -67.5q84 0 134.5 53t50.5 139z" />
    <glyph glyph-name="H" unicode="H" horiz-adv-x="647" 
d="M568 600v-600h-83v260h-324v-260h-82v600h82v-267h324v267h83z" />
    <glyph glyph-name="I" unicode="I" horiz-adv-x="240" 
d="M161 600v-600h-82v600h82z" />
    <glyph glyph-name="J" unicode="J" horiz-adv-x="436" 
d="M16 37l41 63q42 -34 101 -34q123 0 123 146v388h82v-405q0 -99 -50.5 -154t-148.5 -55q-43 0 -80.5 13.5t-49 22t-18.5 15.5z" />
    <glyph glyph-name="K" unicode="K" horiz-adv-x="576" 
d="M161 600v-317l301 317h97v-12l-226 -238l229 -338v-12h-89l-198 289l-114 -120v-169h-82v600h82z" />
    <glyph glyph-name="L" unicode="L" horiz-adv-x="491" 
d="M466 0h-387v600h82v-525h305v-75z" />
    <glyph glyph-name="M" unicode="M" horiz-adv-x="724" 
d="M564 0v446l-188 -242h-27l-188 240v-444h-83l1 600h60l224 -288l223 288h60v-600h-82z" />
    <glyph glyph-name="N" unicode="N" horiz-adv-x="666" 
d="M587 600v-600h-61l-365 455v-455h-82v600h61l364 -451v451h83z" />
    <glyph glyph-name="O" unicode="O" horiz-adv-x="676" 
d="M337 -14q-132 0 -214.5 90t-82.5 223q0 135 82 224.5t215 89.5q135 0 217.5 -89.5t82.5 -224.5q0 -134 -83 -223.5t-217 -89.5zM337 65q96 0 155.5 67t59.5 167q0 101 -59.5 168.5t-155.5 67.5q-95 0 -153.5 -67.5t-58.5 -168.5q0 -100 58.5 -167t153.5 -67z" />
    <glyph glyph-name="P" unicode="P" horiz-adv-x="577" 
d="M320 600q106 0 167 -52.5t61 -147.5q0 -99 -62.5 -153t-169.5 -54h-155v-193h-82v600h241zM464 398q0 63 -39.5 95t-108.5 32h-155v-257h155q148 0 148 130z" />
    <glyph glyph-name="Q" unicode="Q" horiz-adv-x="676" 
d="M337 -14q-132 0 -214.5 90t-82.5 223q0 135 82 224.5t215 89.5q135 0 217.5 -89.5t82.5 -224.5q0 -92 -41.5 -166.5t-114.5 -112.5l83 -138h-93l-66 111q-37 -7 -68 -7zM337 65q96 0 155.5 67t59.5 167q0 101 -59.5 168.5t-155.5 67.5q-95 0 -153.5 -67.5t-58.5 -168.5
q0 -100 58.5 -167t153.5 -67z" />
    <glyph glyph-name="R" unicode="R" horiz-adv-x="598" 
d="M79 600h240q107 0 168 -52.5t61 -147.5q0 -71 -35 -119t-97 -68v-4l147 -193v-16h-89l-150 199h-163v-199h-82v600zM463 398q0 63 -39 95t-108 32h-155v-252h162q64 0 102 31.5t38 93.5z" />
    <glyph glyph-name="S" unicode="S" horiz-adv-x="513" 
d="M39 59l45 62q7 -6 20.5 -16t58 -26t92.5 -16q68 0 101 25.5t33 69.5q0 39 -31 62.5t-118 49.5q-106 32 -152 71.5t-46 106.5q0 76 57 120.5t159 44.5q64 0 114.5 -15t69.5 -30l18 -15l-45 -68q-6 6 -18 14.5t-53 22.5t-86 14q-58 0 -93 -23t-35 -64q0 -34 31 -55t116 -46
q110 -32 155.5 -75t45.5 -112q0 -78 -57.5 -126.5t-163.5 -48.5q-42 0 -79.5 7.5t-62 18t-42.5 21.5t-26 19z" />
    <glyph glyph-name="T" unicode="T" horiz-adv-x="521" 
d="M25 525v75h471v-75h-195v-525h-82v525h-194z" />
    <glyph glyph-name="U" unicode="U" horiz-adv-x="632" 
d="M316 -14q-114 0 -179.5 73.5t-65.5 192.5v348h82v-348q0 -84 42 -135.5t121 -51.5q80 0 121 51t41 136v348h83v-348q0 -119 -65 -192.5t-180 -73.5z" />
    <glyph glyph-name="V" unicode="V" 
d="M258 0l-252 600h86l205 -500l206 500h87l-253 -600h-79z" />
    <glyph glyph-name="W" unicode="W" horiz-adv-x="805" 
d="M529 0l-127 466l-127 -466h-64l-196 600h87l137 -464l126 464h74l125 -464l139 464h87l-196 -600h-65z" />
    <glyph glyph-name="X" unicode="X" horiz-adv-x="538" 
d="M518 600l-189 -292l196 -308h-99l-135 216l-23 43l-23 -43l-133 -216h-99l194 308l-187 292h99l130 -207l20 -40l21 40l129 207h99z" />
    <glyph glyph-name="Y" unicode="Y" horiz-adv-x="533" 
d="M288 346l145 254h94l-219 -370v-230h-83v230l-219 370h94l147 -254l19 -42h2z" />
    <glyph glyph-name="Z" unicode="Z" horiz-adv-x="527" 
d="M30 0v57l355 468h-343v75h453v-58l-348 -467h341v-75h-458z" />
    <glyph glyph-name="bracketleft" unicode="[" horiz-adv-x="323" 
d="M62 -130v830h244v-68h-165v-694h165v-68h-244z" />
    <glyph glyph-name="backslash" unicode="\" horiz-adv-x="364" 
d="M249 -128l-217 926h83l216 -926h-82z" />
    <glyph glyph-name="bracketright" unicode="]" horiz-adv-x="323" 
d="M16 -130v68h165v694h-165v68h245v-830h-245z" />
    <glyph glyph-name="asciicircum" unicode="^" horiz-adv-x="428" 
d="M311 497l-98 139l-98 -139h-68l141 196h51l143 -196h-71z" />
    <glyph glyph-name="underscore" unicode="_" horiz-adv-x="544" 
d="M51 -108v68h442v-68h-442z" />
    <glyph glyph-name="grave" unicode="`" horiz-adv-x="279" 
d="M144 497l-88 133l97 15l49 -148h-58z" />
    <glyph glyph-name="a" unicode="a" horiz-adv-x="463" 
d="M403 259v-259h-57l-10 57h-4q-44 -67 -143 -67q-74 0 -117 38t-43 96q0 62 50 99.5t142 37.5q54 0 104 -16v15q0 100 -116 100q-29 0 -58 -8t-43 -16l-15 -9l-30 65q61 38 156 38q93 0 138.5 -45.5t45.5 -125.5zM325 157v30q-40 19 -96 19q-119 0 -119 -79q0 -33 25 -54
t69 -21q52 0 86.5 31t34.5 74z" />
    <glyph glyph-name="b" unicode="b" horiz-adv-x="522" 
d="M64 0v605h81v-244h4q1 3 4 7.5t14 16.5t25.5 21t41 16.5t57.5 7.5q82 0 138 -61.5t56 -158.5q0 -99 -56 -159.5t-140 -60.5q-33 0 -61.5 8t-44.5 20t-27.5 24t-15.5 20l-5 8h-3l-11 -70h-57zM141 210q0 -69 38 -110.5t94 -41.5t92.5 43t36.5 109q0 67 -36.5 109.5
t-92.5 42.5t-94 -41.5t-38 -110.5z" />
    <glyph glyph-name="c" unicode="c" horiz-adv-x="410" 
d="M249 -10q-94 0 -153 60.5t-59 158.5t59 159.5t153 61.5q41 0 73.5 -9t43.5 -19l12 -9l-24 -61q-40 30 -100 30q-58 0 -96 -41t-38 -112t38 -111t96 -40q27 0 52 7.5t36 14.5l12 8l22 -60q-4 -4 -12.5 -10.5t-41 -17t-73.5 -10.5z" />
    <glyph glyph-name="d" unicode="d" horiz-adv-x="523" 
d="M374 367h4v238h81v-605h-56l-12 65h-3q-2 -3 -5 -8t-16 -18t-28.5 -23t-43.5 -18t-60 -8q-85 0 -141 60.5t-56 159.5q0 97 55.5 158.5t139.5 61.5q30 0 56 -6.5t41 -16t25.5 -18.5t14.5 -15zM383 210q0 69 -38 110.5t-95 41.5q-56 0 -93 -42.5t-37 -109.5q0 -66 37 -109
t93 -43q57 0 95 41.5t38 110.5z" />
    <glyph glyph-name="e" unicode="e" horiz-adv-x="458" 
d="M374 95l30 -57q-5 -5 -15.5 -13.5t-49.5 -22t-86 -13.5q-99 0 -157.5 60.5t-58.5 159.5q0 96 55 158.5t145 62.5q89 0 138.5 -58.5t49.5 -150.5v-21h-307q3 -70 41 -106.5t99 -36.5q33 0 62 9.5t42 19.5zM236 363q-96 0 -114 -103h221q-14 103 -107 103z" />
    <glyph glyph-name="f" unicode="f" horiz-adv-x="312" 
d="M300 355h-121v-355h-82v355h-77v65h77v45q0 69 38.5 108.5t107.5 39.5q26 0 48.5 -5t32.5 -10l10 -5l-25 -64q-26 13 -61 13q-32 0 -50.5 -19.5t-18.5 -54.5v-48h121v-65z" />
    <glyph glyph-name="g" unicode="g" horiz-adv-x="467" 
d="M441 356h-64v-2q23 -16 23 -75q0 -56 -44 -98t-122 -42q-56 0 -96 24q-30 -13 -30 -38q0 -14 8.5 -23t41.5 -17t93 -11q108 -5 152.5 -35.5t44.5 -89.5q0 -57 -57.5 -97.5t-156.5 -40.5q-101 0 -150 32.5t-49 88.5q0 63 72 97q-70 26 -70 91q0 54 59 82q-25 34 -25 80
q0 62 43.5 104t119.5 42q34 0 61 -8h146v-64zM251 7q-45 2 -66 4q-72 -26 -72 -75q0 -28 30.5 -46.5t90.5 -18.5q65 0 99 20.5t34 51.5q0 61 -116 64zM234 368q-42 0 -67 -25t-25 -60q0 -36 25 -60t67 -24q44 0 69.5 23.5t25.5 60.5q0 36 -25.5 60.5t-69.5 24.5z" />
    <glyph glyph-name="h" unicode="h" horiz-adv-x="510" 
d="M64 0v605h82v-225h3q43 50 130 50q80 0 126.5 -52.5t46.5 -138.5v-239h-82v229q0 58 -29 95t-81 37q-53 0 -83 -35.5t-31 -76.5v-249h-82z" />
    <glyph glyph-name="i" unicode="i" horiz-adv-x="213" 
d="M106 506q-22 0 -37.5 14.5t-15.5 36.5t15.5 37t37.5 15t37.5 -15t15.5 -37t-15 -36.5t-38 -14.5zM66 0v420h81v-420h-81z" />
    <glyph glyph-name="j" unicode="j" horiz-adv-x="213" 
d="M5 -156v68h11q25 0 37.5 14t12.5 37v457h81v-461q0 -54 -28 -84.5t-84 -30.5h-30zM106 506q-22 0 -37.5 14.5t-15.5 36.5t15.5 37t37.5 15t37.5 -15t15.5 -37t-15.5 -36.5t-37.5 -14.5z" />
    <glyph glyph-name="k" unicode="k" horiz-adv-x="447" 
d="M331 420h104l-183 -182l185 -238h-100l-146 185l-45 -44v-141h-82v605h82v-369z" />
    <glyph glyph-name="l" unicode="l" horiz-adv-x="215" 
d="M66 0v605h82v-605h-82z" />
    <glyph glyph-name="m" unicode="m" horiz-adv-x="810" 
d="M64 0v420h55l9 -61h6q25 37 57.5 54t83.5 17q105 0 150 -78h5q48 78 149 78q81 0 126.5 -52t45.5 -139v-239h-81v230q0 58 -28.5 94.5t-81.5 36.5q-52 0 -80 -32.5t-31 -74.5v-254h-82v244q0 52 -29 84.5t-82 32.5q-51 0 -79 -33t-31 -74v-254h-82z" />
    <glyph glyph-name="n" unicode="n" horiz-adv-x="511" 
d="M64 0v420h55l9 -61h6q46 71 144 71q81 0 127.5 -52t46.5 -139v-239h-81v230q0 58 -29.5 94.5t-82.5 36.5t-82.5 -35t-30.5 -76v-250h-82z" />
    <glyph glyph-name="o" unicode="o" horiz-adv-x="500" 
d="M464 208q0 -98 -62 -158t-152 -60q-91 0 -152 60t-61 158q0 99 61.5 160.5t151.5 61.5t152 -62t62 -160zM250 56q56 0 94 41.5t38 111.5q0 69 -38 112t-94 43t-94.5 -42.5t-38.5 -112.5t38 -111.5t95 -41.5z" />
    <glyph glyph-name="p" unicode="p" horiz-adv-x="522" 
d="M149 53h-3v-209h-82v576h56l10 -61h7l5 8q3 4 16 16.5t29 22t43.5 17t58.5 7.5q84 0 140 -60.5t56 -159.5q0 -97 -55.5 -158.5t-137.5 -61.5q-31 0 -57.5 6.5t-41.5 16t-25.5 18.5t-14.5 15zM141 210q0 -69 38 -110.5t94 -41.5t92.5 42.5t36.5 109.5q0 66 -36.5 109
t-92.5 43t-94 -41.5t-38 -110.5z" />
    <glyph glyph-name="q" unicode="q" horiz-adv-x="523" 
d="M459 420v-576h-81v215h-4q-1 -3 -4 -7.5t-14 -16.5t-25.5 -21t-40.5 -16.5t-57 -7.5q-84 0 -139.5 61.5t-55.5 158.5q0 99 56 159.5t141 60.5q33 0 60.5 -8t43.5 -20t27.5 -24t15.5 -20l5 -8h4l11 70h57zM383 210q0 69 -38 110.5t-95 41.5q-56 0 -93 -43t-37 -109
q0 -67 37 -109.5t93 -42.5q57 0 95 41.5t38 110.5z" />
    <glyph glyph-name="r" unicode="r" horiz-adv-x="289" 
d="M277 421v-67h-23q-45 0 -76.5 -32.5t-31.5 -81.5v-240h-82v420h55l9 -71h5q15 34 47 53t74 19h23z" />
    <glyph glyph-name="s" unicode="s" horiz-adv-x="413" 
d="M37 41l33 56q58 -41 141 -41q88 0 88 56q0 24 -27 39t-65.5 24.5t-76.5 22.5t-65 41t-27 70q0 53 40.5 87t117.5 34q49 0 91.5 -9t60.5 -17l18 -9l-30 -66q-53 35 -132 35q-88 0 -88 -53q0 -22 27 -36t65.5 -22.5t77 -21t65.5 -41.5t27 -74q0 -55 -41 -90.5t-126 -35.5
q-34 0 -64.5 5.5t-49.5 13t-33.5 14.5t-20.5 13z" />
    <glyph glyph-name="t" unicode="t" horiz-adv-x="325" 
d="M15 420h77v128h82v-128h120v-65h-120v-232q0 -63 58 -63q13 0 27.5 4.5t22.5 9.5l8 4l25 -58q-4 -4 -14.5 -10t-33.5 -13t-47 -7q-65 0 -96.5 35t-31.5 97v233h-77v65z" />
    <glyph glyph-name="u" unicode="u" horiz-adv-x="509" 
d="M363 173v247h82v-420h-54l-14 59h-3q-43 -69 -144 -69q-81 0 -126 52t-45 139v239h82v-230q0 -59 26.5 -95t79.5 -36q56 0 86 36t30 78z" />
    <glyph glyph-name="v" unicode="v" horiz-adv-x="457" 
d="M448 420l-191 -420h-57l-191 420h90l120 -295q7 -16 7 -29h5q0 11 8 29l120 295h89z" />
    <glyph glyph-name="w" unicode="w" horiz-adv-x="656" 
d="M168 0l-154 420h85l92 -295q7 -21 7 -29h7q0 4 1.5 9t3 11.5t2.5 9.5l83 294h69l83 -294q6 -14 6 -30h8q0 11 6 29l94 295h81l-154 -420h-71l-81 289q-6 15 -6 32h-4q0 -9 -7 -32l-82 -289h-69z" />
    <glyph glyph-name="x" unicode="x" horiz-adv-x="438" 
d="M14 0l155 218l-145 202h94l100 -151h3l102 151h93l-148 -202l157 -218h-93l-111 167h-3l-112 -167h-92z" />
    <glyph glyph-name="y" unicode="y" horiz-adv-x="454" 
d="M444 420l-252 -576h-85l83 180l-180 396h90l121 -295q8 -18 8 -29h4q0 11 6 29l121 295h84z" />
    <glyph glyph-name="z" unicode="z" horiz-adv-x="423" 
d="M387 0h-352v43l243 310h-242v67h351v-39l-239 -314h239v-67z" />
    <glyph glyph-name="braceleft" unicode="{" horiz-adv-x="280" 
d="M15 321h25q65 0 65 92v169q0 123 129 133l13 -69q-32 -5 -44.5 -19.5t-12.5 -52.5v-168q0 -95 -61 -116v-9q61 -19 61 -113v-171q0 -37 12.5 -51.5t44.5 -19.5l-13 -68q-129 9 -129 132v169q0 94 -65 94h-25v68z" />
    <glyph glyph-name="bar" unicode="|" horiz-adv-x="200" 
d="M138 687v-815h-76v815h76z" />
    <glyph glyph-name="braceright" unicode="}" horiz-adv-x="280" 
d="M240 321h25v-68h-25q-65 0 -65 -94v-169q0 -123 -129 -132l-13 68q31 5 44 20t13 51v171q0 94 61 113v9q-61 21 -61 116v168q0 38 -13 52.5t-44 19.5l13 69q129 -10 129 -133v-169q0 -92 65 -92z" />
    <glyph glyph-name="asciitilde" unicode="~" horiz-adv-x="479" 
d="M312 317q20 0 40.5 6.5t30.5 12.5l10 6l28 -50q-41 -39 -108 -39q-28 0 -71 16t-75 16q-20 0 -40.5 -6t-30.5 -12l-10 -6l-27 49q42 39 107 39q28 0 71 -16t75 -16z" />
    <glyph glyph-name="uni00A0" unicode="&#xa0;" horiz-adv-x="220" 
 />
    <glyph glyph-name="exclamdown" unicode="&#xa1;" horiz-adv-x="203" 
d="M129 248l21 -425h-99l22 425h56zM47 375q0 24 15.5 40t38.5 16t39 -16t16 -40q0 -23 -16 -39t-39 -16q-22 0 -38 16t-16 39z" />
    <glyph glyph-name="cent" unicode="&#xa2;" horiz-adv-x="428" 
d="M180 0l11 87q-68 19 -109 75t-41 135q0 95 57.5 156.5t149.5 64.5l11 82h51l-11 -86q25 -4 46.5 -12t30.5 -14l10 -7l-24 -61q-29 20 -72 27l-40 -301h12q27 0 52 7.5t36 14.5l12 8l22 -61q-5 -4 -14.5 -10t-42.5 -16.5t-70 -10.5h-16l-10 -78h-51zM124 297
q0 -100 77 -137l38 288q-50 -9 -82.5 -49.5t-32.5 -101.5z" />
    <glyph glyph-name="sterling" unicode="&#xa3;" horiz-adv-x="499" 
d="M446 75v-75h-382v75h1l-1 1q2 1 6.5 3t14.5 10.5t18 19t14.5 29.5t6.5 41q0 23 -18 82h-63v63h46q-12 50 -12 91q0 80 57.5 136t159.5 56q51 0 92.5 -15.5t57.5 -31.5l16 -15l-49 -64q-4 5 -13 13t-39 21t-64 13q-63 0 -95 -34t-32 -86q0 -34 11 -84h208v-63h-190
q14 -51 14 -80q0 -61 -34 -106h269z" />
    <glyph glyph-name="yen" unicode="&#xa5;" horiz-adv-x="581" 
d="M312 346l145 254h94l-183 -309h130v-63h-166v-79h166v-62h-166v-87h-83v87h-165v62h165v79h-165v63h129l-183 309h94l147 -254l19 -42h2z" />
    <glyph glyph-name="brokenbar" unicode="&#xa6;" horiz-adv-x="209" 
d="M142 330h-75v343h75v-343zM142 -153h-75v343h75v-343z" />
    <glyph glyph-name="section" unicode="&#xa7;" horiz-adv-x="518" 
d="M38 45l42 64q8 -5 22.5 -13t60.5 -21.5t94 -13.5q125 0 125 56q0 29 -25.5 43.5t-108.5 39.5q-78 22 -119 50.5t-41 72.5q0 43 35 64q-69 36 -69 96q0 59 53.5 94.5t157.5 35.5q62 0 111.5 -11.5t68.5 -23.5l19 -12l-43 -65q-6 5 -17.5 11.5t-52 18t-86.5 11.5
q-117 0 -117 -56q0 -27 25.5 -43t86.5 -32q183 -50 183 -129q0 -42 -34 -71q69 -39 69 -95q0 -55 -55 -92t-164 -37q-66 0 -121.5 14.5t-77.5 28.5zM232 349q-41 11 -44 12q-19 -9 -19 -34q0 -35 108 -65q38 -12 65 -21q17 17 17 36q0 22 -30.5 38t-96.5 34z" />
    <glyph glyph-name="dieresis" unicode="&#xa8;" horiz-adv-x="455" 
d="M93 713q0 20 15 35t34 15q20 0 35 -15t15 -35t-15 -35.5t-35 -15.5q-19 0 -34 15.5t-15 35.5zM258 713q0 20 15 35t35 15t34.5 -15t14.5 -35t-15 -35.5t-34 -15.5q-20 0 -35 15.5t-15 35.5z" />
    <glyph glyph-name="copyright" unicode="&#xa9;" horiz-adv-x="686" 
d="M343 605q136 0 217.5 -88t81.5 -218t-81.5 -217.5t-217.5 -87.5t-218 88t-82 217q0 130 82 218t218 88zM343 563q-116 0 -185.5 -75.5t-69.5 -188.5q0 -112 69.5 -187.5t185.5 -75.5t186 75.5t70 187.5q0 113 -70 188.5t-186 75.5zM452 424l-29 -44q-26 28 -71 28
q-47 0 -75 -30.5t-28 -77.5q0 -46 28 -76.5t75 -30.5q20 0 38 6.5t26 13.5l7 7l29 -43q-3 -4 -10.5 -10t-34 -16.5t-58.5 -10.5q-73 0 -115.5 45.5t-42.5 114.5q0 70 42.5 115.5t115.5 45.5q32 0 57.5 -9.5t35.5 -18.5z" />
    <glyph glyph-name="ordfeminine" unicode="&#xaa;" horiz-adv-x="398" 
d="M37 372q0 48 37 76t100 28q71 0 100 -29v13q0 51 -19 75t-70 24q-48 0 -94 -23l-20 52q60 26 124 26q79 0 111.5 -39.5t32.5 -116.5v-184h-48l-10 37h-3q-26 -45 -116 -45q-54 0 -89.5 30t-35.5 76zM101 373q0 -28 21.5 -44t58.5 -16q41 0 67 18.5t26 43.5v2
q-1 25 -26 39.5t-63 14.5q-40 0 -62 -15.5t-22 -42.5z" />
    <glyph glyph-name="guillemotleft" unicode="&#xab;" horiz-adv-x="463" 
d="M39 197v23l122 188h70v-10l-118 -186v-6l118 -188v-10h-70zM231 197v23l121 188h69v-10l-118 -186v-6l118 -188v-10h-69z" />
    <glyph glyph-name="logicalnot" unicode="&#xac;" horiz-adv-x="547" 
d="M46 278v68h438v-346h-69v278h-369z" />
    <glyph glyph-name="registered" unicode="&#xae;" horiz-adv-x="546" 
d="M499 380q0 -99 -62 -166t-165 -67q-102 0 -163.5 67.5t-61.5 165.5q0 99 61 166t164 67t165 -67t62 -166zM454 380q0 82 -50.5 136t-131.5 54t-130.5 -53t-49.5 -137q0 -82 50 -136t130 -54q81 0 131.5 54t50.5 136zM188 485h92q39 0 62 -19.5t23 -52.5q0 -42 -39 -61v-1
l41 -58v-10h-41l-42 59h-56v-59h-40v202zM280 447h-52v-68h51q44 0 44 34t-43 34z" />
    <glyph glyph-name="macron" unicode="&#xaf;" horiz-adv-x="526" 
d="M121 668v53h295v-53h-295z" />
    <glyph glyph-name="degree" unicode="&#xb0;" horiz-adv-x="297" 
d="M148 672q50 0 81.5 -31t31.5 -77t-31.5 -76.5t-81.5 -30.5t-81.5 30.5t-31.5 76.5t31.5 77t81.5 31zM148 628q-29 0 -46 -18t-17 -46q0 -26 17.5 -44t45.5 -18q29 0 47 18t18 44q0 28 -18 46t-47 18z" />
    <glyph glyph-name="plusminus" unicode="&#xb1;" horiz-adv-x="524" 
d="M298 173h-69v167h-168v67h168v172h69v-172h165v-67h-165v-167zM463 104v-68h-402v68h402z" />
    <glyph glyph-name="twosuperior" unicode="&#xb2;" horiz-adv-x="344" 
d="M52 342v48l138 120q34 29 34 60q0 54 -61 54q-47 0 -83 -36l-30 44q5 5 14 12.5t38.5 20t61.5 12.5q61 0 90.5 -29.5t29.5 -75.5q0 -55 -45 -92l-103 -88h155v-50h-239z" />
    <glyph glyph-name="threesuperior" unicode="&#xb3;" horiz-adv-x="332" 
d="M51 618v50h226v-38l-71 -91q85 -12 85 -96q0 -48 -33.5 -78.5t-96.5 -30.5q-33 0 -63.5 11.5t-41 19.5t-16.5 14l32 43q35 -37 87 -37q36 0 55 17t19 42t-16.5 39t-48.5 14h-37v34l69 87h-149z" />
    <glyph glyph-name="acute" unicode="&#xb4;" horiz-adv-x="279" 
d="M208 629l-93 -132h-57l52 145z" />
    <glyph glyph-name="mu" unicode="&#xb5;" horiz-adv-x="505" 
d="M363 173v247h82v-420h-54l-14 59h-3q-43 -69 -144 -69q-53 0 -91 23l1 -141h-81v548h82v-230q0 -59 26.5 -95t79.5 -36q56 0 86 36t30 78z" />
    <glyph glyph-name="paragraph" unicode="&#xb6;" horiz-adv-x="527" 
d="M376 -82v204h-62q-126 0 -204.5 63.5t-78.5 180.5q0 113 77 174t203 61h148v-683h-83z" />
    <glyph glyph-name="periodcentered" unicode="&#xb7;" horiz-adv-x="211" 
d="M51 359q0 23 16 39.5t38 16.5q23 0 39 -16.5t16 -39.5t-16 -39t-39 -16q-22 0 -38 16.5t-16 38.5z" />
    <glyph glyph-name="cedilla" unicode="&#xb8;" horiz-adv-x="206" 
d="M75 -66l-15 18l25 51h43l-15 -34q28 -1 46 -17.5t18 -46.5q0 -32 -21 -51.5t-59 -19.5q-23 0 -42 7t-27 15l-7 7l21 31l6 -4q5 -4 10.5 -7t16 -6t20.5 -3q40 0 40 33q0 29 -39 29z" />
    <glyph glyph-name="onesuperior" unicode="&#xb9;" horiz-adv-x="211" 
d="M24 618v50h125v-326h-57v276h-68z" />
    <glyph glyph-name="ordmasculine" unicode="&#xba;" horiz-adv-x="405" 
d="M203 613q72 0 118 -47.5t46 -126.5q0 -76 -46 -123t-118 -47t-118.5 47t-46.5 123q0 79 46.5 126.5t118.5 47.5zM203 557q-46 0 -73.5 -32t-27.5 -85q0 -52 27.5 -83.5t73.5 -31.5t73.5 31.5t27.5 83.5q0 53 -27.5 85t-73.5 32z" />
    <glyph glyph-name="guillemotright" unicode="&#xbb;" horiz-adv-x="462" 
d="M233 220v-23l-122 -189h-71v10l119 188v6l-119 186v10h71zM423 220v-23l-122 -189h-70v10l119 188v6l-119 186v10h70z" />
    <glyph glyph-name="onequarter" unicode="&#xbc;" horiz-adv-x="628" 
d="M313 84v36l178 206h43v-194h59v-48h-59v-84h-55v84h-166zM101 0h-69l468 600h70zM42 550v50h125v-326h-57v276h-68zM410 161q-13 -15 -30 -32l44 3h55v111h-1z" />
    <glyph glyph-name="onehalf" unicode="&#xbd;" horiz-adv-x="688" 
d="M101 0h-69l467 600h71zM412 48v-48h239v50h-155l103 88q45 37 45 92q0 46 -29.5 75.5t-90.5 29.5q-32 0 -60.5 -11.5t-41.5 -22.5l-12 -11l30 -44q36 36 83 36q61 0 61 -54q0 -31 -34 -60zM45 550v50h125v-326h-57v276h-68z" />
    <glyph glyph-name="threequarters" unicode="&#xbe;" horiz-adv-x="707" 
d="M394 83v36l178 206h43v-194h58v-48h-58v-83h-55v83h-166zM186 0h-69l467 600h71zM47 550v50h225v-38l-71 -91q86 -12 86 -96q0 -47 -34 -78t-97 -31q-33 0 -63.5 11.5t-41 19.5t-16.5 14l32 43q35 -37 88 -37q35 0 54 17t19 42t-16.5 39t-48.5 14h-37v34l69 87h-148z
M491 159q-6 -7 -30 -31l44 3h55v111h-1z" />
    <glyph glyph-name="questiondown" unicode="&#xbf;" horiz-adv-x="416" 
d="M355 -66l37 -67q-7 -6 -19.5 -15t-55 -24.5t-88.5 -15.5q-90 0 -143.5 42.5t-53.5 116.5q0 40 16 72t39 53.5t46.5 40t41 41t19.5 48.5l3 26h60v-38q0 -30 -14 -57t-34 -46.5t-40.5 -38.5t-34.5 -42.5t-14 -48.5q0 -40 31 -65t82 -25q32 0 62.5 10.5t44.5 21.5zM278 378
q0 -23 -15.5 -38.5t-37.5 -15.5q-23 0 -39 16t-16 38q0 23 16 39.5t39 16.5q22 0 37.5 -16.5t15.5 -39.5z" />
    <glyph glyph-name="Agrave" unicode="&#xc0;" 
d="M337 600l253 -600h-87l-53 129h-305l-53 -129h-86l252 600h79zM298 499l-123 -297h245zM266 635l-88 133l97 15l49 -148h-58z" />
    <glyph glyph-name="Aacute" unicode="&#xc1;" 
d="M337 600l253 -600h-87l-53 129h-305l-53 -129h-86l252 600h79zM298 499l-123 -297h245zM420 767l-93 -132h-57l52 145z" />
    <glyph glyph-name="Acircumflex" unicode="&#xc2;" 
d="M337 600l253 -600h-87l-53 129h-305l-53 -129h-86l252 600h79zM298 499l-123 -297h245zM349 662l-51 62l-53 -62h-69l88 114h66l89 -114h-70z" />
    <glyph glyph-name="Atilde" unicode="&#xc3;" 
d="M337 600l253 -600h-87l-53 129h-305l-53 -129h-86l252 600h79zM298 499l-123 -297h245zM376 663q-34 0 -79 27.5t-63 27.5q-32 0 -43 -40l-4 -16l-58 6l5 28q17 86 91 86q32 0 77 -28t64 -28q35 0 44 42l3 15l58 -6l-5 -27q-15 -87 -90 -87z" />
    <glyph glyph-name="Adieresis" unicode="&#xc4;" 
d="M337 600l253 -600h-87l-53 129h-305l-53 -129h-86l252 600h79zM298 499l-123 -297h245zM165 713q0 20 15 35t34 15q20 0 35 -15t15 -35t-15 -35.5t-35 -15.5q-19 0 -34 15.5t-15 35.5zM330 713q0 20 15 35t35 15t34.5 -15t14.5 -35t-15 -35.5t-34 -15.5q-20 0 -35 15.5
t-15 35.5z" />
    <glyph glyph-name="Aring" unicode="&#xc5;" 
d="M337 600l253 -600h-87l-53 129h-305l-53 -129h-86l252 600h79zM298 499l-123 -297h245zM192 703q0 39 29 63.5t77 24.5q46 0 75 -24.5t29 -63.5t-29 -63.5t-75 -24.5q-48 0 -77 24.5t-29 63.5zM351 703q0 41 -53 41q-55 0 -55 -41t55 -41q53 0 53 41z" />
    <glyph glyph-name="AE" unicode="&#xc6;" horiz-adv-x="882" 
d="M-7 0l411 600h438v-75h-344v-185h291v-74h-291v-191h344v-75h-427v130h-236l-86 -130h-100zM409 475l-181 -271h187v271h-6z" />
    <glyph glyph-name="Ccedilla" unicode="&#xc7;" horiz-adv-x="563" 
d="M295 -66l-15 18l18 37q-116 15 -187.5 102t-71.5 208q0 134 83.5 224t217.5 90q60 0 110 -19t70 -38l20 -19l-48 -64q-2 3 -6.5 7t-19.5 14.5t-31 19t-41.5 15t-52.5 6.5q-95 0 -156 -68t-61 -168q0 -99 61 -167t156 -68q42 0 80 15.5t55 30.5l16 16l48 -64l-8 -8
q-5 -5 -23.5 -18.5t-39.5 -23.5t-56 -18t-73 -8l-7 -17q28 -1 46 -17.5t18 -46.5q0 -32 -21 -51.5t-59 -19.5q-23 0 -42 7t-27 15l-7 7l21 31l6 -4q5 -4 10.5 -7t16 -6t20.5 -3q40 0 40 33q0 29 -39 29z" />
    <glyph glyph-name="Egrave" unicode="&#xc8;" horiz-adv-x="542" 
d="M452 340v-73h-291v-192h341v-75h-423v600h423v-75h-341v-185h291zM272 635l-88 133l97 15l49 -148h-58z" />
    <glyph glyph-name="Eacute" unicode="&#xc9;" horiz-adv-x="542" 
d="M412 767l-93 -132h-57l52 145zM452 340v-73h-291v-192h341v-75h-423v600h423v-75h-341v-185h291z" />
    <glyph glyph-name="Ecircumflex" unicode="&#xca;" horiz-adv-x="542" 
d="M349 662l-51 62l-53 -62h-69l88 114h66l89 -114h-70zM452 340v-73h-291v-192h341v-75h-423v600h423v-75h-341v-185h291z" />
    <glyph glyph-name="Edieresis" unicode="&#xcb;" horiz-adv-x="542" 
d="M162 713q0 20 15 35t34 15q20 0 35 -15t15 -35t-15 -35.5t-35 -15.5q-19 0 -34 15.5t-15 35.5zM327 713q0 20 15 35t35 15t34.5 -15t14.5 -35t-15 -35.5t-34 -15.5q-20 0 -35 15.5t-15 35.5zM452 340v-73h-291v-192h341v-75h-423v600h423v-75h-341v-185h291z" />
    <glyph glyph-name="Igrave" unicode="&#xcc;" horiz-adv-x="240" 
d="M161 600v-600h-82v600h82zM88 635l-88 133l97 15l49 -148h-58z" />
    <glyph glyph-name="Iacute" unicode="&#xcd;" horiz-adv-x="240" 
d="M161 600v-600h-82v600h82zM242 767l-93 -132h-57l52 145z" />
    <glyph glyph-name="Icircumflex" unicode="&#xce;" horiz-adv-x="240" 
d="M161 600v-600h-82v600h82zM173 662l-51 62l-53 -62h-69l88 114h66l89 -114h-70z" />
    <glyph glyph-name="Idieresis" unicode="&#xcf;" horiz-adv-x="240" 
d="M161 600v-600h-82v600h82zM-12 713q0 20 15 35t34 15q20 0 35 -15t15 -35t-15 -35.5t-35 -15.5q-19 0 -34 15.5t-15 35.5zM153 713q0 20 15 35t35 15t34.5 -15t14.5 -35t-15 -35.5t-34 -15.5q-20 0 -35 15.5t-15 35.5z" />
    <glyph glyph-name="Eth" unicode="&#xd0;" horiz-adv-x="632" 
d="M22 266v75h58v259h205q138 0 222.5 -82t84.5 -218t-84.5 -218t-222.5 -82h-205v266h-58zM280 525h-118v-184h167v-75h-167v-191h118q99 0 163 60.5t64 164.5t-64 164.5t-163 60.5z" />
    <glyph glyph-name="Ntilde" unicode="&#xd1;" horiz-adv-x="666" 
d="M587 600v-600h-61l-365 455v-455h-82v600h61l364 -451v451h83zM412 664q-34 0 -79 27.5t-63 27.5q-32 0 -43 -40l-4 -16l-58 6l5 28q17 86 91 86q32 0 77 -28t64 -28q35 0 44 42l3 15l58 -6l-5 -27q-15 -87 -90 -87z" />
    <glyph glyph-name="Ograve" unicode="&#xd2;" horiz-adv-x="676" 
d="M337 -14q-132 0 -214.5 90t-82.5 223q0 135 82 224.5t215 89.5q135 0 217.5 -89.5t82.5 -224.5q0 -134 -83 -223.5t-217 -89.5zM337 65q96 0 155.5 67t59.5 167q0 101 -59.5 168.5t-155.5 67.5q-95 0 -153.5 -67.5t-58.5 -168.5q0 -100 58.5 -167t153.5 -67zM310 662
l-88 133l97 15l49 -148h-58z" />
    <glyph glyph-name="Oacute" unicode="&#xd3;" horiz-adv-x="676" 
d="M455 794l-93 -132h-57l52 145zM337 -14q-132 0 -214.5 90t-82.5 223q0 135 82 224.5t215 89.5q135 0 217.5 -89.5t82.5 -224.5q0 -134 -83 -223.5t-217 -89.5zM337 65q96 0 155.5 67t59.5 167q0 101 -59.5 168.5t-155.5 67.5q-95 0 -153.5 -67.5t-58.5 -168.5
q0 -100 58.5 -167t153.5 -67z" />
    <glyph glyph-name="Ocircumflex" unicode="&#xd4;" horiz-adv-x="676" 
d="M390 662l-51 62l-53 -62h-69l88 114h66l89 -114h-70zM337 -14q-132 0 -214.5 90t-82.5 223q0 135 82 224.5t215 89.5q135 0 217.5 -89.5t82.5 -224.5q0 -134 -83 -223.5t-217 -89.5zM337 65q96 0 155.5 67t59.5 167q0 101 -59.5 168.5t-155.5 67.5q-95 0 -153.5 -67.5
t-58.5 -168.5q0 -100 58.5 -167t153.5 -67z" />
    <glyph glyph-name="Otilde" unicode="&#xd5;" horiz-adv-x="676" 
d="M337 -14q-132 0 -214.5 90t-82.5 223q0 135 82 224.5t215 89.5q135 0 217.5 -89.5t82.5 -224.5q0 -134 -83 -223.5t-217 -89.5zM337 65q96 0 155.5 67t59.5 167q0 101 -59.5 168.5t-155.5 67.5q-95 0 -153.5 -67.5t-58.5 -168.5q0 -100 58.5 -167t153.5 -67zM413 663
q-34 0 -79 27.5t-63 27.5q-32 0 -43 -40l-4 -16l-58 6l5 28q17 86 91 86q32 0 77 -28t64 -28q35 0 44 42l3 15l58 -6l-5 -27q-15 -87 -90 -87z" />
    <glyph glyph-name="Odieresis" unicode="&#xd6;" horiz-adv-x="676" 
d="M205 713q0 20 15 35t34 15q20 0 35 -15t15 -35t-15 -35.5t-35 -15.5q-19 0 -34 15.5t-15 35.5zM370 713q0 20 15 35t35 15t34.5 -15t14.5 -35t-15 -35.5t-34 -15.5q-20 0 -35 15.5t-15 35.5zM337 -14q-132 0 -214.5 90t-82.5 223q0 135 82 224.5t215 89.5
q135 0 217.5 -89.5t82.5 -224.5q0 -134 -83 -223.5t-217 -89.5zM337 65q96 0 155.5 67t59.5 167q0 101 -59.5 168.5t-155.5 67.5q-95 0 -153.5 -67.5t-58.5 -168.5q0 -100 58.5 -167t153.5 -67z" />
    <glyph glyph-name="multiply" unicode="&#xd7;" horiz-adv-x="497" 
d="M103 99l-48 47l148 154l-148 154l48 47l146 -153l147 153l47 -47l-148 -154l148 -154l-47 -47l-147 153z" />
    <glyph glyph-name="Oslash" unicode="&#xd8;" horiz-adv-x="683" 
d="M341 -14q-115 0 -195 70l-54 -56h-89l101 103q-60 83 -60 196q0 135 82 224.5t215 89.5q113 0 193 -67l53 54h89l-98 -101q63 -85 63 -200q0 -134 -83 -223.5t-217 -89.5zM341 65q96 0 155.5 67t59.5 167q0 80 -38 139l-314 -323q58 -50 137 -50zM129 299q0 -76 35 -134
l313 321q-57 49 -136 49q-95 0 -153.5 -67.5t-58.5 -168.5z" />
    <glyph glyph-name="Ugrave" unicode="&#xd9;" horiz-adv-x="632" 
d="M316 -14q-114 0 -179.5 73.5t-65.5 192.5v348h82v-348q0 -84 42 -135.5t121 -51.5q80 0 121 51t41 136v348h83v-348q0 -119 -65 -192.5t-180 -73.5zM286 635l-88 133l97 15l49 -148h-58z" />
    <glyph glyph-name="Uacute" unicode="&#xda;" horiz-adv-x="632" 
d="M434 767l-93 -132h-57l52 145zM316 -14q-114 0 -179.5 73.5t-65.5 192.5v348h82v-348q0 -84 42 -135.5t121 -51.5q80 0 121 51t41 136v348h83v-348q0 -119 -65 -192.5t-180 -73.5z" />
    <glyph glyph-name="Ucircumflex" unicode="&#xdb;" horiz-adv-x="632" 
d="M369 634l-51 62l-53 -62h-69l88 114h66l89 -114h-70zM316 -14q-114 0 -179.5 73.5t-65.5 192.5v348h82v-348q0 -84 42 -135.5t121 -51.5q80 0 121 51t41 136v348h83v-348q0 -119 -65 -192.5t-180 -73.5z" />
    <glyph glyph-name="Udieresis" unicode="&#xdc;" horiz-adv-x="632" 
d="M185 713q0 20 15 35t34 15q20 0 35 -15t15 -35t-15 -35.5t-35 -15.5q-19 0 -34 15.5t-15 35.5zM350 713q0 20 15 35t35 15t34.5 -15t14.5 -35t-15 -35.5t-34 -15.5q-20 0 -35 15.5t-15 35.5zM316 -14q-114 0 -179.5 73.5t-65.5 192.5v348h82v-348q0 -84 42 -135.5
t121 -51.5q80 0 121 51t41 136v348h83v-348q0 -119 -65 -192.5t-180 -73.5z" />
    <glyph glyph-name="Yacute" unicode="&#xdd;" horiz-adv-x="533" 
d="M288 346l145 254h94l-219 -370v-230h-83v230l-219 370h94l147 -254l19 -42h2zM387 800l-93 -132h-57l52 145z" />
    <glyph glyph-name="Thorn" unicode="&#xde;" horiz-adv-x="578" 
d="M161 600v-96h160q108 0 169 -52.5t61 -149.5q0 -101 -63 -155t-172 -54h-155v-93h-82v600h82zM466 299q0 64 -39.5 96.5t-109.5 32.5h-156v-260h156q149 0 149 131z" />
    <glyph glyph-name="germandbls" unicode="&#xdf;" horiz-adv-x="498" 
d="M237 273v59q106 16 106 110q0 41 -25.5 67.5t-69.5 26.5q-45 0 -73.5 -31t-28.5 -87v-418h-82v406q0 98 49 149.5t141 51.5q80 0 128 -46t48 -120q0 -42 -19.5 -75.5t-53.5 -50.5q50 -14 77 -56t27 -93q0 -81 -51.5 -128t-142.5 -47q-21 0 -39 2t-26 5l-7 2l8 60
q22 -5 56 -5q54 0 86.5 30t32.5 78q0 52 -32.5 81t-86.5 29h-22z" />
    <glyph glyph-name="agrave" unicode="&#xe0;" horiz-adv-x="463" 
d="M403 259v-259h-57l-10 57h-4q-44 -67 -143 -67q-74 0 -117 38t-43 96q0 62 50 99.5t142 37.5q54 0 104 -16v15q0 100 -116 100q-29 0 -58 -8t-43 -16l-15 -9l-30 65q61 38 156 38q93 0 138.5 -45.5t45.5 -125.5zM325 157v30q-40 19 -96 19q-119 0 -119 -79q0 -33 25 -54
t69 -21q52 0 86.5 31t34.5 74zM201 497l-88 133l97 15l49 -148h-58z" />
    <glyph glyph-name="aacute" unicode="&#xe1;" horiz-adv-x="463" 
d="M403 259v-259h-57l-10 57h-4q-44 -67 -143 -67q-74 0 -117 38t-43 96q0 62 50 99.5t142 37.5q54 0 104 -16v15q0 100 -116 100q-29 0 -58 -8t-43 -16l-15 -9l-30 65q61 38 156 38q93 0 138.5 -45.5t45.5 -125.5zM325 157v30q-40 19 -96 19q-119 0 -119 -79q0 -33 25 -54
t69 -21q52 0 86.5 31t34.5 74zM354 629l-93 -132h-57l52 145z" />
    <glyph glyph-name="acircumflex" unicode="&#xe2;" horiz-adv-x="463" 
d="M403 259v-259h-57l-10 57h-4q-44 -67 -143 -67q-74 0 -117 38t-43 96q0 62 50 99.5t142 37.5q54 0 104 -16v15q0 100 -116 100q-29 0 -58 -8t-43 -16l-15 -9l-30 65q61 38 156 38q93 0 138.5 -45.5t45.5 -125.5zM325 157v30q-40 19 -96 19q-119 0 -119 -79q0 -33 25 -54
t69 -21q52 0 86.5 31t34.5 74zM274 497l-51 62l-53 -62h-69l88 114h66l89 -114h-70z" />
    <glyph glyph-name="atilde" unicode="&#xe3;" horiz-adv-x="463" 
d="M403 259v-259h-57l-10 57h-4q-44 -67 -143 -67q-74 0 -117 38t-43 96q0 62 50 99.5t142 37.5q54 0 104 -16v15q0 100 -116 100q-29 0 -58 -8t-43 -16l-15 -9l-30 65q61 38 156 38q93 0 138.5 -45.5t45.5 -125.5zM325 157v30q-40 19 -96 19q-119 0 -119 -79q0 -33 25 -54
t69 -21q52 0 86.5 31t34.5 74zM298 494q-34 0 -79 27.5t-63 27.5q-32 0 -43 -40l-4 -16l-58 6l5 28q17 86 91 86q32 0 77 -28t64 -28q35 0 44 42l3 15l58 -6l-5 -27q-15 -87 -90 -87z" />
    <glyph glyph-name="adieresis" unicode="&#xe4;" horiz-adv-x="463" 
d="M403 259v-259h-57l-10 57h-4q-44 -67 -143 -67q-74 0 -117 38t-43 96q0 62 50 99.5t142 37.5q54 0 104 -16v15q0 100 -116 100q-29 0 -58 -8t-43 -16l-15 -9l-30 65q61 38 156 38q93 0 138.5 -45.5t45.5 -125.5zM325 157v30q-40 19 -96 19q-119 0 -119 -79q0 -33 25 -54
t69 -21q52 0 86.5 31t34.5 74zM92 542q0 20 15 35t34 15q20 0 35 -15t15 -35t-15 -35.5t-35 -15.5q-19 0 -34 15.5t-15 35.5zM257 542q0 20 15 35t35 15t34.5 -15t14.5 -35t-15 -35.5t-34 -15.5q-20 0 -35 15.5t-15 35.5z" />
    <glyph glyph-name="aring" unicode="&#xe5;" horiz-adv-x="463" 
d="M403 259v-259h-57l-10 57h-4q-44 -67 -143 -67q-74 0 -117 38t-43 96q0 62 50 99.5t142 37.5q54 0 104 -16v15q0 100 -116 100q-29 0 -58 -8t-43 -16l-15 -9l-30 65q61 38 156 38q93 0 138.5 -45.5t45.5 -125.5zM325 157v30q-40 19 -96 19q-119 0 -119 -79q0 -33 25 -54
t69 -21q52 0 86.5 31t34.5 74zM120 584q0 39 29 63.5t77 24.5q46 0 75 -24.5t29 -63.5t-29 -63.5t-75 -24.5q-48 0 -77 24.5t-29 63.5zM279 584q0 41 -53 41q-55 0 -55 -41t55 -41q53 0 53 41z" />
    <glyph glyph-name="ae" unicode="&#xe6;" horiz-adv-x="745" 
d="M661 96l30 -57q-5 -6 -15.5 -14t-49.5 -22t-86 -14q-113 0 -172 77q-55 -76 -170 -76q-83 0 -126 37.5t-43 95.5q0 63 47.5 100t140.5 37q59 0 107 -16v15q0 102 -115 102q-29 0 -58 -8.5t-43 -16.5l-15 -9l-30 65q62 38 154 38q114 0 158 -68q57 68 150 68
q88 0 137.5 -58.5t49.5 -150.5v-21h-307q3 -70 41 -106.5t99 -36.5q33 0 62 9.5t41 19.5zM203 52q57 0 89 30.5t32 76.5v26q-45 19 -100 19q-114 0 -114 -79q0 -33 23.5 -53t69.5 -20zM523 363q-96 0 -114 -103h221q-14 103 -107 103z" />
    <glyph glyph-name="ccedilla" unicode="&#xe7;" horiz-adv-x="410" 
d="M214 -72l-15 18l22 46q-83 8 -133.5 67t-50.5 150q0 98 59 159.5t153 61.5q41 0 73.5 -9t43.5 -19l12 -9l-24 -61q-40 30 -100 30q-58 0 -96 -41t-38 -112t38 -111t96 -40q27 0 52 7.5t36 14.5l12 8l22 -60q-32 -33 -112 -37l-12 -28q28 -1 46 -17.5t18 -46.5
q0 -32 -21 -51.5t-59 -19.5q-23 0 -42 7t-26 15l-8 7l21 31l5 -4q6 -4 11.5 -7t16 -6t20.5 -3q40 0 40 33q0 29 -39 29z" />
    <glyph glyph-name="egrave" unicode="&#xe8;" horiz-adv-x="458" 
d="M374 95l30 -57q-5 -5 -15.5 -13.5t-49.5 -22t-86 -13.5q-99 0 -157.5 60.5t-58.5 159.5q0 96 55 158.5t145 62.5q89 0 138.5 -58.5t49.5 -150.5v-21h-307q3 -70 41 -106.5t99 -36.5q33 0 62 9.5t42 19.5zM236 363q-96 0 -114 -103h221q-14 103 -107 103zM204 497l-88 133
l97 15l49 -148h-58z" />
    <glyph glyph-name="eacute" unicode="&#xe9;" horiz-adv-x="458" 
d="M357 629l-93 -132h-57l52 145zM374 95l30 -57q-5 -5 -15.5 -13.5t-49.5 -22t-86 -13.5q-99 0 -157.5 60.5t-58.5 159.5q0 96 55 158.5t145 62.5q89 0 138.5 -58.5t49.5 -150.5v-21h-307q3 -70 41 -106.5t99 -36.5q33 0 62 9.5t42 19.5zM236 363q-96 0 -114 -103h221
q-14 103 -107 103z" />
    <glyph glyph-name="ecircumflex" unicode="&#xea;" horiz-adv-x="458" 
d="M287 496l-51 62l-53 -62h-69l88 114h66l89 -114h-70zM374 95l30 -57q-5 -5 -15.5 -13.5t-49.5 -22t-86 -13.5q-99 0 -157.5 60.5t-58.5 159.5q0 96 55 158.5t145 62.5q89 0 138.5 -58.5t49.5 -150.5v-21h-307q3 -70 41 -106.5t99 -36.5q33 0 62 9.5t42 19.5zM236 363
q-96 0 -114 -103h221q-14 103 -107 103z" />
    <glyph glyph-name="edieresis" unicode="&#xeb;" horiz-adv-x="458" 
d="M105 542q0 20 15 35t34 15q20 0 35 -15t15 -35t-15 -35.5t-35 -15.5q-19 0 -34 15.5t-15 35.5zM270 542q0 20 15 35t35 15t34.5 -15t14.5 -35t-15 -35.5t-34 -15.5q-20 0 -35 15.5t-15 35.5zM374 95l30 -57q-5 -5 -15.5 -13.5t-49.5 -22t-86 -13.5q-99 0 -157.5 60.5
t-58.5 159.5q0 96 55 158.5t145 62.5q89 0 138.5 -58.5t49.5 -150.5v-21h-307q3 -70 41 -106.5t99 -36.5q33 0 62 9.5t42 19.5zM236 363q-96 0 -114 -103h221q-14 103 -107 103z" />
    <glyph glyph-name="igrave" unicode="&#xec;" horiz-adv-x="213" 
d="M66 0v420h81v-420h-81zM73 497l-88 133l97 15l49 -148h-58z" />
    <glyph glyph-name="iacute" unicode="&#xed;" horiz-adv-x="213" 
d="M228 629l-93 -132h-57l52 145zM66 0v420h81v-420h-81z" />
    <glyph glyph-name="icircumflex" unicode="&#xee;" horiz-adv-x="213" 
d="M159 524l-51 62l-53 -62h-69l88 114h66l89 -114h-70zM66 0v420h81v-420h-81z" />
    <glyph glyph-name="idieresis" unicode="&#xef;" horiz-adv-x="213" 
d="M-24 574q0 20 15 35t34 15q20 0 35 -15t15 -35t-15 -35.5t-35 -15.5q-19 0 -34 15.5t-15 35.5zM141 574q0 20 15 35t35 15t34.5 -15t14.5 -35t-15 -35.5t-34 -15.5q-20 0 -35 15.5t-15 35.5zM66 0v420h81v-420h-81z" />
    <glyph glyph-name="eth" unicode="&#xf0;" horiz-adv-x="503" 
d="M251 -10q-99 0 -156.5 59.5t-57.5 160.5q0 99 57.5 159.5t156.5 60.5q22 0 49 -5v4q-14 17 -27 38l-43 68l-117 -72l-28 48l116 71l-84 135v11h77l68 -109l120 74l28 -47l-119 -73l125 -199q27 -47 37.5 -82t10.5 -82q0 -101 -57 -160.5t-156 -59.5zM382 210
q0 72 -36.5 112t-94.5 40t-94.5 -40t-36.5 -112q0 -71 37 -111.5t94 -40.5t94 40.5t37 111.5z" />
    <glyph glyph-name="ntilde" unicode="&#xf1;" horiz-adv-x="511" 
d="M64 0v420h55l9 -61h6q46 71 144 71q81 0 127.5 -52t46.5 -139v-239h-81v230q0 58 -29.5 94.5t-82.5 36.5t-82.5 -35t-30.5 -76v-250h-82zM331 525q-34 0 -79 27.5t-63 27.5q-32 0 -43 -40l-4 -16l-58 6l5 28q17 86 91 86q32 0 77 -28t64 -28q35 0 44 42l3 15l58 -6
l-5 -27q-15 -87 -90 -87z" />
    <glyph glyph-name="ograve" unicode="&#xf2;" horiz-adv-x="500" 
d="M464 208q0 -98 -62 -158t-152 -60q-91 0 -152 60t-61 158q0 99 61.5 160.5t151.5 61.5t152 -62t62 -160zM250 56q56 0 94 41.5t38 111.5q0 69 -38 112t-94 43t-94.5 -42.5t-38.5 -112.5t38 -111.5t95 -41.5zM219 497l-88 133l97 15l49 -148h-58z" />
    <glyph glyph-name="oacute" unicode="&#xf3;" horiz-adv-x="500" 
d="M369 629l-93 -132h-57l52 145zM464 208q0 -98 -62 -158t-152 -60q-91 0 -152 60t-61 158q0 99 61.5 160.5t151.5 61.5t152 -62t62 -160zM250 56q56 0 94 41.5t38 111.5q0 69 -38 112t-94 43t-94.5 -42.5t-38.5 -112.5t38 -111.5t95 -41.5z" />
    <glyph glyph-name="ocircumflex" unicode="&#xf4;" horiz-adv-x="500" 
d="M302 524l-51 62l-53 -62h-69l88 114h66l89 -114h-70zM464 208q0 -98 -62 -158t-152 -60q-91 0 -152 60t-61 158q0 99 61.5 160.5t151.5 61.5t152 -62t62 -160zM250 56q56 0 94 41.5t38 111.5q0 69 -38 112t-94 43t-94.5 -42.5t-38.5 -112.5t38 -111.5t95 -41.5z" />
    <glyph glyph-name="otilde" unicode="&#xf5;" horiz-adv-x="500" 
d="M464 208q0 -98 -62 -158t-152 -60q-91 0 -152 60t-61 158q0 99 61.5 160.5t151.5 61.5t152 -62t62 -160zM250 56q56 0 94 41.5t38 111.5q0 69 -38 112t-94 43t-94.5 -42.5t-38.5 -112.5t38 -111.5t95 -41.5zM322 526q-34 0 -79 27.5t-63 27.5q-32 0 -43 -40l-4 -16l-58 6
l5 28q17 86 91 86q32 0 77 -28t64 -28q35 0 44 42l3 15l58 -6l-5 -27q-15 -87 -90 -87z" />
    <glyph glyph-name="odieresis" unicode="&#xf6;" horiz-adv-x="500" 
d="M118 575q0 20 15 35t34 15q20 0 35 -15t15 -35t-15 -35.5t-35 -15.5q-19 0 -34 15.5t-15 35.5zM283 575q0 20 15 35t35 15t34.5 -15t14.5 -35t-15 -35.5t-34 -15.5q-20 0 -35 15.5t-15 35.5zM464 208q0 -98 -62 -158t-152 -60q-91 0 -152 60t-61 158q0 99 61.5 160.5
t151.5 61.5t152 -62t62 -160zM250 56q56 0 94 41.5t38 111.5q0 69 -38 112t-94 43t-94.5 -42.5t-38.5 -112.5t38 -111.5t95 -41.5z" />
    <glyph glyph-name="divide" unicode="&#xf7;" horiz-adv-x="488" 
d="M189 142q0 23 16 39.5t39 16.5t39 -16.5t16 -39.5t-16 -39t-39 -16t-39 16t-16 39zM189 455q0 23 16 39.5t39 16.5t39 -16.5t16 -39.5t-16 -39t-39 -16t-39 16t-16 39zM54 262v68h380v-68h-380z" />
    <glyph glyph-name="oslash" unicode="&#xf8;" horiz-adv-x="501" 
d="M465 208q0 -98 -62 -158t-152 -60q-79 0 -134 44l-32 -34h-62l62 65q-47 58 -47 143q0 99 61.5 160.5t151.5 61.5q75 0 130 -43l30 33h62l-61 -63q53 -61 53 -149zM251 56q56 0 94 41.5t38 111.5q0 53 -24 93l-194 -214q35 -32 86 -32zM118 209q0 -51 21 -88l192 213
q-35 30 -80 30q-56 0 -94.5 -42.5t-38.5 -112.5z" />
    <glyph glyph-name="ugrave" unicode="&#xf9;" horiz-adv-x="509" 
d="M363 173v247h82v-420h-54l-14 59h-3q-43 -69 -144 -69q-81 0 -126 52t-45 139v239h82v-230q0 -59 26.5 -95t79.5 -36q56 0 86 36t30 78zM221 497l-88 133l97 15l49 -148h-58z" />
    <glyph glyph-name="uacute" unicode="&#xfa;" horiz-adv-x="509" 
d="M370 629l-93 -132h-57l52 145zM363 173v247h82v-420h-54l-14 59h-3q-43 -69 -144 -69q-81 0 -126 52t-45 139v239h82v-230q0 -59 26.5 -95t79.5 -36q56 0 86 36t30 78z" />
    <glyph glyph-name="ucircumflex" unicode="&#xfb;" horiz-adv-x="509" 
d="M300 496l-51 62l-53 -62h-69l88 114h66l89 -114h-70zM363 173v247h82v-420h-54l-14 59h-3q-43 -69 -144 -69q-81 0 -126 52t-45 139v239h82v-230q0 -59 26.5 -95t79.5 -36q56 0 86 36t30 78z" />
    <glyph glyph-name="udieresis" unicode="&#xfc;" horiz-adv-x="509" 
d="M117 547q0 20 15 35t34 15q20 0 35 -15t15 -35t-15 -35.5t-35 -15.5q-19 0 -34 15.5t-15 35.5zM282 547q0 20 15 35t35 15t34.5 -15t14.5 -35t-15 -35.5t-34 -15.5q-20 0 -35 15.5t-15 35.5zM363 173v247h82v-420h-54l-14 59h-3q-43 -69 -144 -69q-81 0 -126 52t-45 139
v239h82v-230q0 -59 26.5 -95t79.5 -36q56 0 86 36t30 78z" />
    <glyph glyph-name="yacute" unicode="&#xfd;" horiz-adv-x="454" 
d="M444 420l-252 -576h-85l83 180l-180 396h90l121 -295q8 -18 8 -29h4q0 11 6 29l121 295h84zM348 629l-93 -132h-57l52 145z" />
    <glyph glyph-name="thorn" unicode="&#xfe;" horiz-adv-x="523" 
d="M149 79h-3v-235h-82v756h82v-257h3q1 4 4 9.5t14.5 20.5t26 26.5t40.5 21t57 9.5q85 0 140 -60.5t55 -159.5q0 -97 -56 -158.5t-139 -61.5q-31 0 -57 9t-41 22t-25.5 26.5t-14.5 22.5zM142 210q0 -69 38 -110.5t94 -41.5t92.5 42.5t36.5 109.5q0 66 -36.5 109t-92.5 43
t-94 -41.5t-38 -110.5z" />
    <glyph glyph-name="ydieresis" unicode="&#xff;" horiz-adv-x="454" 
d="M444 420l-252 -576h-85l83 180l-180 396h90l121 -295q8 -18 8 -29h4q0 11 6 29l121 295h84zM96 547q0 20 15 35t34 15q20 0 35 -15t15 -35t-15 -35.5t-35 -15.5q-19 0 -34 15.5t-15 35.5zM261 547q0 20 15 35t35 15t34.5 -15t14.5 -35t-15 -35.5t-34 -15.5
q-20 0 -35 15.5t-15 35.5z" />
    <glyph glyph-name="dotlessi" unicode="&#x131;" horiz-adv-x="213" 
d="M66 0v420h81v-420h-81z" />
    <glyph glyph-name="Lslash" unicode="&#x141;" horiz-adv-x="494" 
d="M17 228v69l65 39v264h82v-214l149 92v-69l-149 -92v-242h305v-75h-387v267z" />
    <glyph glyph-name="lslash" unicode="&#x142;" horiz-adv-x="232" 
d="M21 222v52l54 33v298h82v-247l58 36v-51l-58 -37v-306h-82v255z" />
    <glyph glyph-name="OE" unicode="&#x152;" horiz-adv-x="1025" 
d="M337 -14q-132 0 -214.5 90t-82.5 223q0 135 82 224.5t215 89.5q138 0 225 -98v85h423v-75h-341v-185h291v-73h-291v-192h341v-75h-423v84q-87 -98 -225 -98zM337 65q96 0 155.5 67t59.5 167q0 101 -59.5 168.5t-155.5 67.5q-95 0 -153.5 -67.5t-58.5 -168.5
q0 -100 58.5 -167t153.5 -67z" />
    <glyph glyph-name="oe" unicode="&#x153;" horiz-adv-x="810" 
d="M728 95l30 -57q-5 -5 -15.5 -13.5t-49.5 -22t-86 -13.5q-123 0 -181 90q-61 -89 -176 -89q-91 0 -152 60t-61 158q0 99 61.5 160.5t151.5 61.5q54 0 100 -24t75 -67q55 91 166 91q89 0 138.5 -58.5t49.5 -150.5v-21h-307q3 -70 41 -106.5t99 -36.5q33 0 62 9.5t42 19.5z
M250 56q56 0 94 41.5t38 111.5q0 69 -38 112t-94 43t-94.5 -42.5t-38.5 -112.5t38 -111.5t95 -41.5zM590 363q-96 0 -114 -103h221q-14 103 -107 103z" />
    <glyph glyph-name="Scaron" unicode="&#x160;" horiz-adv-x="513" 
d="M201 777l51 -62l53 62h69l-85 -109h-72l-86 109h70zM39 59l45 62q7 -6 20.5 -16t58 -26t92.5 -16q68 0 101 25.5t33 69.5q0 39 -31 62.5t-118 49.5q-106 32 -152 71.5t-46 106.5q0 76 57 120.5t159 44.5q64 0 114.5 -15t69.5 -30l18 -15l-45 -68q-6 6 -18 14.5t-53 22.5
t-86 14q-58 0 -93 -23t-35 -64q0 -34 31 -55t116 -46q110 -32 155.5 -75t45.5 -112q0 -78 -57.5 -126.5t-163.5 -48.5q-42 0 -79.5 7.5t-62 18t-42.5 21.5t-26 19z" />
    <glyph glyph-name="scaron" unicode="&#x161;" horiz-adv-x="413" 
d="M158 606l51 -62l53 62h69l-85 -109h-72l-86 109h70zM37 41l33 56q58 -41 141 -41q88 0 88 56q0 24 -27 39t-65.5 24.5t-76.5 22.5t-65 41t-27 70q0 53 40.5 87t117.5 34q49 0 91.5 -9t60.5 -17l18 -9l-30 -66q-53 35 -132 35q-88 0 -88 -53q0 -22 27 -36t65.5 -22.5
t77 -21t65.5 -41.5t27 -74q0 -55 -41 -90.5t-126 -35.5q-34 0 -64.5 5.5t-49.5 13t-33.5 14.5t-20.5 13z" />
    <glyph glyph-name="Ydieresis" unicode="&#x178;" horiz-adv-x="533" 
d="M288 346l145 254h94l-219 -370v-230h-83v230l-219 370h94l147 -254l19 -42h2zM136 713q0 20 15 35t34 15q20 0 35 -15t15 -35t-15 -35.5t-35 -15.5q-19 0 -34 15.5t-15 35.5zM301 713q0 20 15 35t35 15t34.5 -15t14.5 -35t-15 -35.5t-34 -15.5q-20 0 -35 15.5t-15 35.5z
" />
    <glyph glyph-name="Zcaron" unicode="&#x17d;" horiz-adv-x="527" 
d="M207 777l51 -62l53 62h69l-85 -109h-72l-86 109h70zM30 0v57l355 468h-343v75h453v-58l-348 -467h341v-75h-458z" />
    <glyph glyph-name="zcaron" unicode="&#x17e;" horiz-adv-x="423" 
d="M158 606l51 -62l53 62h69l-85 -109h-72l-86 109h70zM387 0h-352v43l243 310h-242v67h351v-39l-239 -314h239v-67z" />
    <glyph glyph-name="florin" unicode="&#x192;" horiz-adv-x="515" 
d="M167 122l47 234h-84v64h97l6 29q34 159 184 159q24 0 46 -5t31 -9l10 -5l-34 -67q-21 12 -57 12q-43 0 -66 -19.5t-33 -65.5l-6 -29h146v-64h-159l-50 -252q-11 -52 -37 -79t-83 -27q-23 0 -44 6t-31 12l-10 6l25 63q22 -14 47 -14q24 0 36.5 11.5t18.5 39.5z" />
    <glyph glyph-name="circumflex" unicode="&#x2c6;" horiz-adv-x="371" 
d="M243 662l-51 62l-53 -62h-69l88 114h66l89 -114h-70z" />
    <glyph glyph-name="caron" unicode="&#x2c7;" horiz-adv-x="325" 
d="M109 777l51 -62l53 62h69l-85 -109h-72l-86 109h70z" />
    <glyph glyph-name="breve" unicode="&#x2d8;" horiz-adv-x="396" 
d="M272 810h64q0 -60 -39.5 -102t-97.5 -42q-60 0 -99.5 42t-39.5 102h65q0 -34 20.5 -57.5t52.5 -23.5q31 0 52.5 23.5t21.5 57.5z" />
    <glyph glyph-name="dotaccent" unicode="&#x2d9;" horiz-adv-x="331" 
d="M166 550q-26 0 -44.5 18.5t-18.5 44.5t18.5 44t44.5 18t44.5 -18t18.5 -44t-18.5 -44.5t-44.5 -18.5z" />
    <glyph glyph-name="ring" unicode="&#x2da;" horiz-adv-x="288" 
d="M39 703q0 39 29 63.5t77 24.5q46 0 75 -24.5t29 -63.5t-29 -63.5t-75 -24.5q-48 0 -77 24.5t-29 63.5zM198 703q0 41 -53 41q-55 0 -55 -41t55 -41q53 0 53 41z" />
    <glyph glyph-name="ogonek" unicode="&#x2db;" horiz-adv-x="193" 
d="M145 -79l25 -32q-22 -27 -65 -27q-35 0 -55 19t-20 51q0 62 91 95l9 -27q-51 -26 -51 -58q0 -34 34 -34q19 0 32 13z" />
    <glyph glyph-name="tilde" unicode="&#x2dc;" horiz-adv-x="485" 
d="M314 663q-34 0 -79 27.5t-63 27.5q-32 0 -43 -40l-4 -16l-58 6l5 28q17 86 91 86q32 0 77 -28t64 -28q35 0 44 42l3 15l58 -6l-5 -27q-15 -87 -90 -87z" />
    <glyph glyph-name="hungarumlaut" unicode="&#x2dd;" horiz-adv-x="395" 
d="M334 577l-80 -158h-55l43 158h92zM177 577l-80 -158h-55l43 158h92z" />
    <glyph glyph-name="pi" unicode="&#x3c0;" horiz-adv-x="504" 
d="M29 420h446v-66h-64v-354h-82v354h-154v-354h-81v354h-65v66z" />
    <glyph glyph-name="endash" unicode="&#x2013;" horiz-adv-x="462" 
d="M60 254v68h335v-68h-335z" />
    <glyph glyph-name="emdash" unicode="&#x2014;" horiz-adv-x="715" 
d="M60 254v68h588v-68h-588z" />
    <glyph glyph-name="quoteleft" unicode="&#x2018;" horiz-adv-x="217" 
d="M45 435v8q0 61 33 103.5t92 53.5l13 -46q-70 -16 -76 -68q19 -4 31 -18t12 -33q0 -22 -15 -37t-37 -15t-37.5 15t-15.5 37z" />
    <glyph glyph-name="quoteright" unicode="&#x2019;" horiz-adv-x="220" 
d="M44 428q70 16 75 69q-19 3 -30.5 17t-11.5 33q0 22 15.5 37.5t37.5 15.5t37 -15.5t15 -37.5v-7q0 -62 -33 -104t-91 -53z" />
    <glyph glyph-name="quotesinglbase" unicode="&#x201a;" horiz-adv-x="207" 
d="M155 42v-8q0 -61 -33 -103.5t-92 -53.5l-13 46q32 8 52 25.5t23 42.5q-18 4 -30 18t-12 33q0 22 15 37t37 15t37.5 -15t15.5 -37z" />
    <glyph glyph-name="quotedblleft" unicode="&#x201c;" horiz-adv-x="371" 
d="M337 554q-70 -16 -76 -68q19 -3 31 -17.5t12 -33.5q0 -22 -15 -37t-37 -15t-37.5 15t-15.5 37v8q0 61 33 103.5t92 53.5zM45 435v8q0 61 33 103.5t92 53.5l13 -46q-70 -16 -76 -68q19 -4 31 -18t12 -33q0 -22 -15 -37t-37 -15t-37.5 15t-15.5 37z" />
    <glyph glyph-name="quotedblright" unicode="&#x201d;" horiz-adv-x="371" 
d="M182 547v-7q0 -62 -33 -104t-92 -53l-14 45q70 16 75 69q-18 3 -30 17t-12 33q0 22 15.5 37.5t37.5 15.5t37.5 -15.5t15.5 -37.5zM333 547v-7q0 -62 -33 -104t-92 -53l-13 45q70 16 75 69q-19 3 -30.5 17t-11.5 33q0 22 15.5 37.5t37.5 15.5t37 -15.5t15 -37.5z" />
    <glyph glyph-name="quotedblbase" unicode="&#x201e;" horiz-adv-x="438" 
d="M155 42v-8q0 -61 -33 -103.5t-92 -53.5l-13 46q32 8 52 25.5t23 42.5q-18 4 -30 18t-12 33q0 22 15 37t37 15t37.5 -15t15.5 -37zM386 42v-8q0 -61 -33 -103.5t-92 -53.5l-13 46q32 8 52 25.5t23 42.5q-18 4 -30 18t-12 33q0 22 15 37t37 15t37.5 -15t15.5 -37z" />
    <glyph glyph-name="dagger" unicode="&#x2020;" horiz-adv-x="399" 
d="M33 431v68h132v136h69v-136h132v-68h-132l-7 -262h-54l-8 262h-132z" />
    <glyph glyph-name="daggerdbl" unicode="&#x2021;" horiz-adv-x="431" 
d="M50 464v68h132v136h69v-136h132v-68h-132l-6 -130l6 -130h132v-68h-132v-136h-69v136h-132v68h132l6 130l-6 130h-132z" />
    <glyph glyph-name="bullet" unicode="&#x2022;" horiz-adv-x="314" 
d="M158 301q32 0 55 -23t23 -55t-23 -54.5t-55 -22.5q-33 0 -56 22.5t-23 54.5t23 55t56 23z" />
    <glyph glyph-name="ellipsis" unicode="&#x2026;" horiz-adv-x="718" 
d="M53 52q0 26 18 44t44 18q25 0 43.5 -18t18.5 -44t-18 -44t-44 -18t-44 18t-18 44zM297 52q0 26 18 44t43 18q26 0 44.5 -18t18.5 -44t-18.5 -44t-44.5 -18t-43.5 18t-17.5 44zM540 52q0 26 18 44t44 18t44 -18t18 -44t-18 -44t-44 -18t-44 18t-18 44z" />
    <glyph glyph-name="perthousand" unicode="&#x2030;" horiz-adv-x="956" 
d="M171 613q60 0 95 -43.5t35 -106.5q0 -62 -35 -106.5t-95 -44.5t-96 44.5t-36 106.5q0 63 35.5 106.5t96.5 43.5zM171 373q29 0 45.5 25t16.5 65q0 41 -16.5 65.5t-45.5 24.5q-31 0 -47.5 -24.5t-16.5 -65.5q0 -40 16.5 -65t47.5 -25zM521 600h84l-477 -600h-83zM487 293
q60 0 95.5 -44t35.5 -107q0 -62 -35.5 -106t-95.5 -44t-95.5 44t-35.5 106q0 63 35.5 107t95.5 44zM487 233q-30 0 -47 -25t-17 -66q0 -39 17 -64t47 -25t46 24.5t16 64.5q0 42 -16 66.5t-46 24.5zM794 233q-30 0 -46.5 -25t-16.5 -66q0 -40 16.5 -64.5t46.5 -24.5
t46.5 24.5t16.5 64.5q0 41 -16.5 66t-46.5 25zM794 293q60 0 95.5 -44t35.5 -107q0 -62 -35.5 -106t-95.5 -44t-95.5 44t-35.5 106q0 63 35.5 107t95.5 44z" />
    <glyph glyph-name="guilsinglleft" unicode="&#x2039;" horiz-adv-x="272" 
d="M39 197v23l122 188h70v-10l-118 -186v-6l118 -188v-10h-70z" />
    <glyph glyph-name="guilsinglright" unicode="&#x203a;" horiz-adv-x="271" 
d="M233 220v-23l-122 -189h-71v10l119 188v6l-119 186v10h71z" />
    <glyph glyph-name="fraction" unicode="&#x2044;" horiz-adv-x="579" 
d="M59 0h-69l529 683h71z" />
    <glyph glyph-name="Euro" unicode="&#x20ac;" horiz-adv-x="570" 
d="M398 261v-61h-196q35 -136 163 -136q35 0 65.5 14t43.5 28l13 14l42 -60q-2 -3 -6 -8t-19 -17.5t-32.5 -22t-47 -17.5t-61.5 -8q-99 0 -161.5 58.5t-85.5 154.5h-77v61h68q-2 26 -2 41q0 29 2 44h-68v61h78q23 93 85.5 149.5t160.5 56.5q32 0 61 -7.5t47.5 -18t32.5 -21
t20 -18.5l6 -7l-43 -63q-5 6 -14 15.5t-41 25.5t-67 16q-126 0 -161 -128h194v-61h-205q-2 -14 -2 -44q0 -28 1 -41h206z" />
    <glyph glyph-name="trademark" unicode="&#x2122;" horiz-adv-x="711" 
d="M392 281h-56v319h40l113 -147l115 147h38v-319h-55v215l-89 -115h-18l-88 114v-214zM279 600v-49h-96v-270h-55v270h-95v49h246z" />
    <glyph glyph-name="Omega" unicode="&#x2126;" horiz-adv-x="713" 
d="M51 0v72h132q-62 36 -96.5 101t-34.5 137q0 127 81.5 215t222.5 88t223 -88t82 -215q0 -72 -34.5 -137t-96.5 -101h132v-72h-270v74q79 6 132.5 73.5t53.5 155.5q0 97 -61 164t-161 67t-160.5 -67t-60.5 -164q0 -88 54 -155.5t133 -73.5v-74h-271z" />
    <glyph glyph-name="partialdiff" unicode="&#x2202;" horiz-adv-x="503" 
d="M251 -10q-99 0 -156.5 59.5t-57.5 160.5q0 99 57.5 159.5t156.5 60.5q22 0 49 -5v4q-14 17 -27 38l-156 250v11h77l222 -354q27 -47 37.5 -82t10.5 -82q0 -101 -57 -160.5t-156 -59.5zM382 210q0 72 -36.5 112t-94.5 40t-94.5 -40t-36.5 -112q0 -71 37 -111.5t94 -40.5
t94 40.5t37 111.5z" />
    <glyph glyph-name="Delta" unicode="&#x2206;" horiz-adv-x="628" 
d="M27 0v17l279 583h16l279 -583v-17h-574zM484 72l-170 381h-3l-168 -381h341z" />
    <glyph glyph-name="product" unicode="&#x220f;" horiz-adv-x="619" 
d="M554 600v-600h-83v528h-323v-528h-83v600h489z" />
    <glyph glyph-name="summation" unicode="&#x2211;" horiz-adv-x="445" 
d="M44 600h356v-72h-252l161 -209v-40l-159 -207h250v-72h-356v72l176 220v13l-176 223v72z" />
    <glyph glyph-name="minus" unicode="&#x2212;" horiz-adv-x="554" 
d="M60 265v68h434v-68h-434z" />
    <glyph glyph-name="radical" unicode="&#x221a;" horiz-adv-x="605" 
d="M614 600l-390 -792h-18l-201 399h92l88 -188q26 -49 29 -71h5q1 16 27 71l276 581h92z" />
    <glyph glyph-name="infinity" unicode="&#x221e;" horiz-adv-x="755" 
d="M210 116q-73 0 -118.5 49.5t-45.5 120.5q0 69 45.5 119.5t118.5 50.5q53 0 92 -32t77 -90q74 122 167 122q68 0 115.5 -47.5t47.5 -122.5q0 -71 -44.5 -120.5t-118.5 -49.5q-54 0 -93.5 32t-75.5 87q-37 -56 -75.5 -87.5t-91.5 -31.5zM541 390q-67 0 -125 -103
q30 -51 58.5 -78.5t66.5 -27.5q46 0 73 30.5t27 74.5q0 45 -29 74.5t-71 29.5zM215 181q38 0 67 27t58 76q-29 51 -58 78.5t-67 27.5q-46 0 -73 -31t-27 -73q0 -43 27 -74t73 -31z" />
    <glyph glyph-name="integral" unicode="&#x222b;" horiz-adv-x="307" 
d="M113 13v517q0 119 105 119q20 0 39 -5.5t27 -10.5l9 -5l-23 -61q-17 10 -36 10q-39 0 -39 -55v-517q0 -119 -106 -119q-20 0 -38.5 5t-26.5 11l-9 5l23 61q18 -10 36 -10q39 0 39 55z" />
    <glyph glyph-name="approxequal" unicode="&#x2248;" horiz-adv-x="474" 
d="M313 170q-33 0 -76.5 22.5t-60.5 22.5q-28 0 -40 -33l-3 -14l-70 6l6 33q16 77 96 77q33 0 76 -22.5t61 -22.5q30 0 39 34l4 13l69 -6l-6 -33q-6 -35 -30 -56t-65 -21zM313 362q-33 0 -76.5 22.5t-60.5 22.5q-29 0 -40 -34l-3 -13l-70 6l6 33q16 77 96 77q33 0 76 -22.5
t61 -22.5q29 0 39 33l4 14l69 -6l-6 -33q-6 -35 -30 -56t-65 -21z" />
    <glyph glyph-name="notequal" unicode="&#x2260;" horiz-adv-x="465" 
d="M55 359v67h193l42 115l58 -20l-35 -95h97v-67h-122l-54 -148h176v-68h-201l-41 -112l-58 20l34 92h-89v68h114l54 148h-168z" />
    <glyph glyph-name="lessequal" unicode="&#x2264;" horiz-adv-x="387" 
d="M302 253l-48 -50l-188 180v17l188 185l48 -50l-146 -144zM338 143v-68h-284v68h284z" />
    <glyph glyph-name="greaterequal" unicode="&#x2265;" horiz-adv-x="386" 
d="M133 203l-49 50l146 138l-146 144l48 50l188 -185v-17zM49 75v68h283v-68h-283z" />
    <glyph glyph-name="lozenge" unicode="&#x25ca;" horiz-adv-x="452" 
d="M254 600l166 -300l-166 -300h-56l-166 300l166 300h56zM125 299l95 -185h12l94 185l-94 187h-12z" />
    </font>
</defs>
</svg>
